<?xml version="1.0"?>
<svg version="1.1" xmlns="http://www.w3.org/2000/svg" width="130" height="41" style=""><path fill="#450101" d="M23.66015625,25.26953125l6.796875,0l0,8.8828125q-1.65234375,0.5390625-3.111328125,0.755859375t-2.982421875,0.216796875q-3.87890625,0-5.923828125-2.279296875t-2.044921875-6.544921875q0-4.1484375,2.373046875-6.46875t6.580078125-2.3203125q2.63671875,0,5.0859375,1.0546875l-1.20703125,2.90625q-1.875-0.9375-3.90234375-0.9375q-2.35546875,0-3.7734375,1.58203125t-1.41796875,4.25390625q0,2.7890625,1.142578125,4.259765625t3.322265625,1.470703125q1.13671875,0,2.30859375-0.234375l0-3.57421875l-3.24609375,0l0-3.0234375z M44.2238671875,34.890625l-0.69140625-1.78125l-0.09375,0q-0.90234375,1.13671875-1.857421875,1.576171875t-2.490234375,0.439453125q-1.88671875,0-2.970703125-1.078125t-1.083984375-3.0703125q0-2.0859375,1.458984375-3.076171875t4.400390625-1.095703125l2.2734375-0.0703125l0-0.57421875q0-1.9921875-2.0390625-1.9921875q-1.5703125,0-3.69140625,0.94921875l-1.18359375-2.4140625q2.26171875-1.18359375,5.015625-1.18359375q2.63671875,0,4.04296875,1.1484375t1.40625,3.4921875l0,8.73046875l-2.49609375,0z M43.1691796875,28.8203125l-1.3828125,0.046875q-1.55859375,0.046875-2.3203125,0.5625t-0.76171875,1.5703125q0,1.51171875,1.734375,1.51171875q1.2421875,0,1.986328125-0.71484375t0.744140625-1.8984375l0-1.078125z M57.568828125,32.27734375q0.9375,0,2.25-0.41015625l0,2.66015625q-1.3359375,0.59765625-3.28125,0.59765625q-2.14453125,0-3.123046875-1.083984375t-0.978515625-3.251953125l0-6.31640625l-1.7109375,0l0-1.51171875l1.96875-1.1953125l1.03125-2.765625l2.28515625,0l0,2.7890625l3.66796875,0l0,2.68359375l-3.66796875,0l0,6.31640625q0,0.76171875,0.427734375,1.125t1.130859375,0.36328125z M63.9645703125,18.40234375q0-1.74609375,1.9453125-1.74609375t1.9453125,1.74609375q0,0.83203125-0.486328125,1.294921875t-1.458984375,0.462890625q-1.9453125,0-1.9453125-1.7578125z M67.6911328125,34.890625l-3.57421875,0l0-13.1015625l3.57421875,0l0,13.1015625z M78.6103125,32.27734375q0.9375,0,2.25-0.41015625l0,2.66015625q-1.3359375,0.59765625-3.28125,0.59765625q-2.14453125,0-3.123046875-1.083984375t-0.978515625-3.251953125l0-6.31640625l-1.7109375,0l0-1.51171875l1.96875-1.1953125l1.03125-2.765625l2.28515625,0l0,2.7890625l3.66796875,0l0,2.68359375l-3.66796875,0l0,6.31640625q0,0.76171875,0.427734375,1.125t1.130859375,0.36328125z M88.0060546875,28.31640625q0,1.9453125,0.638671875,2.94140625t2.080078125,0.99609375q1.4296875,0,2.056640625-0.990234375t0.626953125-2.947265625q0-1.9453125-0.6328125-2.91796875t-2.07421875-0.97265625q-1.4296875,0-2.0625,0.966796875t-0.6328125,2.923828125z M97.0646484375,28.31640625q0,3.19921875-1.6875,5.00390625t-4.69921875,1.8046875q-1.88671875,0-3.328125-0.826171875t-2.21484375-2.373046875t-0.7734375-3.609375q0-3.2109375,1.67578125-4.9921875t4.7109375-1.78125q1.88671875,0,3.328125,0.8203125t2.21484375,2.35546875t0.7734375,3.59765625z"/><path fill="#" d=""/></svg>
